# AST/ASF file generated using VICON BodyLanguage
# -----------------------------------------------
:version 1.10
:name VICON
:units
  mass 1.0
  length 0.45
  angle deg
:documentation
   .ast/.asf automatically generated from VICON data using
   VICON BodyBuilder and BodyLanguage model FoxedUp or BRILLIANT.MOD
:root
   order TX TY TZ RX RY RZ
   axis XYZ
   position 0 0 0  
   orientation 0 0 0 
:bonedata
  begin
     id 1 
     name lhipjoint
     direction 0.673618 -0.716094 0.182886 
     length 2.63917 
     axis 0 0 0  XYZ
  end
  begin
     id 2 
     name lfemur
     direction 0.34202 -0.939693 0  
     length 7.41015  
     axis 0 0 20  XYZ
    dof rx ry rz
    limits (-160.0 20.0)
           (-70.0 70.0)
           (-60.0 70.0)
  end
  begin
     id 3 
     name ltibia
     direction 0.34202 -0.939693 0   
     length 7.92551   
     axis 0 0 20   XYZ
    dof rx
    limits (-10.0 170.0)
  end
  begin
     id 4 
     name lfoot
     direction 0.0786834 -0.216181 0.973178   
     length 2.28657   
     axis -90 7.62852e-016 20   XYZ
    dof rx rz
    limits (-45.0 90.0)
           (-70.0 20.0)
  end
  begin
     id 5 
     name ltoes
     direction 1.53562e-011 -4.21928e-011 1   
     length 1.14687   
     axis -90 7.62852e-016 20   XYZ
    dof rx
    limits (-90.0 20.0)
  end
  begin
     id 6 
     name rhipjoint
     direction -0.630561 -0.752002 0.192056   
     length 2.51315  
     axis 0 0 0  XYZ 
  end
  begin
     id 7 
     name rfemur
     direction -0.34202 -0.939693 0   
     length 7.61317   
     axis 0 0 -20   XYZ
    dof rx ry rz
    limits (-160.0 20.0)
           (-70.0 70.0)
           (-70.0 60.0)
  end
  begin
     id 8 
     name rtibia
     direction -0.34202 -0.939693 0   
     length 7.99175   
     axis 0 0 -20   XYZ
    dof rx
    limits (-10.0 170.0)
 end
 begin
     id 9 
     name rfoot
     direction -0.109419 -0.300625 0.947445   
     length 2.34126  
     axis -90 -7.62852e-016 -20   XYZ
    dof rx rz
    limits (-45.0 90.0)
           (-20.0 70.0)
  end
  begin
     id 10 
     name rtoes
     direction -1.53603e-011 -4.21913e-011 1   
     length 1.16381   
     axis -90 -7.62852e-016 -20   XYZ
    dof rx
    limits (-90.0 20.0)
  end
  begin
     id 11 
     name lowerback
     direction 0.0168077 0.993836 -0.109583   
     length 2.02862   
     axis 0 0 0   XYZ
    dof rx ry rz
    limits (-20.0 45.0)
           (-30.0 30.0)
           (-30.0 30.0)
  end
  begin
     id 12 
     name upperback
     direction 0.0170634 0.999844 0.00461437   
     length 2.03044   
     axis 0 0 0   XYZ
    dof rx ry rz
    limits (-20.0 45.0)
           (-30.0 30.0)
           (-30.0 30.0)
  end
  begin
     id 13 
     name thorax
     direction 0.00813305 0.998421 0.0555897   
     length 2.05762   
     axis 0 0 0   XYZ
    dof rx ry rz
    limits (-20.0 45.0)
           (-30.0 30.0)
           (-30.0 30.0)
  end
  begin
     id 14 
     name lowerneck
     direction -0.00127547 0.992596 0.121455   
     length 1.7173   
     axis 0 0 0   XYZ
    dof rx ry rz
    limits (-20.0 45.0)
           (-30.0 30.0)
           (-30.0 30.0)
  end
  begin
     id 15 
     name upperneck
     direction 0.0144921 0.991716 -0.127628   
     length 1.73779   
     axis 0 0 0   XYZ
    dof rx ry rz
    limits (-20.0 45.0)
           (-30.0 30.0)
           (-30.0 30.0)
  end
  begin
     id 16
     name head
     direction 0.00161449 0.998411 -0.0563246  
     length 1.74399  
     axis 0 0 0   XYZ
    dof rx ry rz
    limits (-20.0 45.0)
           (-30.0 30.0)
           (-30.0 30.0)
  end
  begin
     id 17 
     name lclavicle
     direction 0.952642 0.284773 -0.106664  
     length 3.53079  
     axis 0 0 0   XYZ
    dof ry rz
    limits (-20.0 10.0)
           (0.0 20.0)
  end
  begin
     id 18 
     name lhumerus
     direction 1 -4.48971e-011 1.90155e-027   
     length 5.06507   
     axis 180 -30 -90   XYZ
    dof rx ry rz
    limits (-60.0 90.0)
           (-90.0 90.0)
           (-90.0 90.0)
  end
  begin
     id 19
     name lradius
     direction 1 -4.48978e-011 1.0994e-027   
     length 3.60196   
     axis 180 -30 -90   XYZ
    dof rx
    limits (-10.0 170.0)
  end
  begin
     id 20
     name lwrist
     direction 1 -4.48947e-011 2.56952e-028   
     length 1.80098   
     axis -5.12785e-016 90 90   XYZ
    dof ry
    limits (-180.0 0.0)
 end
  begin
     id 21 
     name lhand
     direction 1 -4.49009e-011 5.13905e-028   
     length 0.450346   
     axis -3.27915e-016 90 90   XYZ
    dof rx rz
    limits (-90.0 90.0)
           (-45.0 45.0)
  end
  begin
     id 22 
     name lfingers
     direction 1 -4.48975e-011 1.02781e-027   
     length 0.363081   
     axis -6.5583e-016 90 90   XYZ
    dof rx
    limits (0.0 90.0)
  end
  begin
     id 23
     name lthumb
     direction 0.707107 -6.34941e-011 0.707107   
     length 0.521313   
     axis -90 45 2.85299e-015   XYZ
    dof rx rz
    limits (-45.0 45.0)
           (-45.0 45.0)
  end
  begin
     id 24 
     name rclavicle
     direction -0.955889 0.219434 -0.195256   
     length 3.66318  
     axis 0 0 0   XYZ 
    dof ry rz
    limits (-10.0 20.0)
           (-20.0 0.0)
  end
  begin
     id 25 
     name rhumerus
     direction -1 -4.48973e-011 1.65154e-027  
     length 5.36394   
     axis 180 30 90   XYZ
    dof rx ry rz
    limits (-90.0 60.0)
           (-90.0 90.0)
           (-90.0 90.0)
  end
  begin
     id 26 
     name rradius
     direction -1 -4.4898e-011 3.26231e-028   
     length 3.58035   
     axis 180 30 90   XYZ
    dof rx
    limits (-10.0 170.0)
  end
  begin
     id 27 
     name rwrist
     direction -1 -4.4894e-011 2.56952e-028   
     length 1.79017   
     axis -5.12785e-016 -90 -90   XYZ
    dof ry
    limits (-180.0 0.0)
  end
  begin
     id 28
     name rhand
     direction -1 -4.48999e-011 5.13905e-028   
     length 0.663747   
     axis -3.27915e-016 -90 -90   XYZ
    dof rx rz
    limits (-90.0 90.0)
           (-45.0 45.0)
  end
  begin
     id 29
     name rfingers
     direction -1 -4.49025e-011 1.02781e-027   
     length 0.53513   
     axis -6.5583e-016 -90 -90   XYZ
    dof rx
    limits (0.0 90.0)
  end
  begin
     id 30
     name rthumb
     direction -0.707107 -6.34891e-011 0.707107   
     length 0.768342   
     axis -90 -45 -2.85299e-015   XYZ
    dof rx rz
    limits (-45.0 45.0)
           (-45.0 45.0)
  end
:hierarchy
  begin
    root lhipjoint rhipjoint lowerback
    lhipjoint lfemur
    lfemur ltibia
    ltibia lfoot
    lfoot ltoes
    rhipjoint rfemur
    rfemur rtibia
    rtibia rfoot
    rfoot rtoes
    lowerback upperback
    upperback thorax
    thorax lowerneck lclavicle rclavicle
    lowerneck upperneck
    upperneck head
    lclavicle lhumerus
    lhumerus lradius
    lradius lwrist
    lwrist lhand lthumb
    lhand lfingers
    rclavicle rhumerus
    rhumerus rradius
    rradius rwrist
    rwrist rhand rthumb
    rhand rfingers
  end

#!OML:ASF F:\VICON\USERDATA\INSTALL\rory3\rory3.ASF
:FULLY-SPECIFIED
:DEGREES
78
root 4.67783 17.7079 -6.87351 -0.016246 1.46669 2.68781
lowerback 10.211 -1.68 -4.73495
upperback 0.0846856 -2.69979 1.67923
thorax -5.34261 -1.18648 4.8259
lowerneck -16.8178 -3.05691 -2.08887
upperneck 21.1648 -3.5731 -0.531079
head 9.49167 -1.89577 -0.302316
rclavicle 1.4064e-014 1.59028e-014
rhumerus -34.4454 -21.3651 -75.9596
rradius 25.4245
rwrist 3.63961
rhand -18.2894 22.5186
rfingers 7.12502
rthumb 7.991 -7.31036
lclavicle 1.4064e-014 1.59028e-014
lhumerus -27.269 -6.86791 81.461
lradius 34.969
lwrist 8.44207
lhand -25.7825 31.4196
lfingers 7.12502
lthumb 0.75583 61.398
rfemur -30.7696 6.09195 15.5023
rtibia 16.1052
rfoot -12.486 -14.8428
rtoes 1.13566
lfemur 12.462 -1.78767 -27.5157
ltibia 17.8891
lfoot -16.8018 -0.695328
ltoes -10.3727
79
root 4.65581 17.7056 -6.67514 -0.0622771 1.59503 2.49998
lowerback 10.0849 -1.6801 -4.48136
upperback 0.365388 -2.66188 1.64656
thorax -4.99279 -1.19186 4.62728
lowerneck -17.6935 -3.14668 -1.92972
upperneck 21.3791 -3.71671 -0.544086
head 9.72642 -1.94802 -0.369945
rclavicle 2.88735e-014 -8.74653e-015
rhumerus -34.093 -21.9178 -76.1013
rradius 25.3082
rwrist 3.70756
rhand -18.3384 22.2332
rfingers 7.12502
rthumb 7.94369 -7.5975
lclavicle 2.88735e-014 -8.74653e-015
lhumerus -26.7353 -6.77556 81.2623
lradius 34.9556
lwrist 7.95574
lhand -26.9792 29.698
lfingers 7.12502
lthumb -0.400031 59.6774
rfemur -30.8128 5.02652 16.4088
rtibia 17.3992
rfoot -11.36 -13.6894
rtoes -1.40832
lfemur 12.8466 -2.11795 -27.2072
ltibia 18.6508
lfoot -16.5887 -0.89771
ltoes -12.1388
80
root 4.63351 17.6719 -6.47619 -0.224265 1.41216 2.41977
lowerback 10.2372 -1.57716 -4.39325
upperback 0.385549 -2.52246 1.61312
thorax -5.07759 -1.12296 4.53003
lowerneck -17.4282 -3.21054 -1.98627
upperneck 21.1666 -3.81911 -0.44554
head 9.60631 -1.98943 -0.332895
rclavicle 1.30204e-014 4.77083e-015
rhumerus -34.3893 -21.746 -76.2198
rradius 25.5368
rwrist 3.33705
rhand -18.7359 21.3678
rfingers 7.12502
rthumb 7.56005 -8.47707
lclavicle 1.30204e-014 4.77083e-015
lhumerus -26.6575 -6.74225 81.1963
lradius 34.7841
lwrist 7.3478
lhand -27.9022 30.3957
lfingers 7.12502
lthumb -1.29147 60.3715
rfemur -30.9795 4.34521 17.1344
rtibia 18.9827
rfoot -10.5282 -12.4733
rtoes -1.9438
lfemur 13.3402 -2.11685 -27.0421
ltibia 19.279
lfoot -16.384 -1.47915
ltoes -13.3692
81
root 4.61209 17.6703 -6.26858 -0.521066 1.17152 2.53078
lowerback 10.4104 -1.49675 -4.64628
upperback 0.413353 -2.45191 1.62161
thorax -5.14239 -1.08042 4.67994
lowerneck -17.0793 -3.18107 -1.95666
upperneck 21.0273 -3.75734 -0.600211
head 9.48857 -1.97746 -0.375017
rclavicle 1.44119e-014 -2.14687e-014
rhumerus -34.6111 -21.6091 -76.1023
rradius 25.3645
rwrist 3.37978
rhand -18.8822 21.3893
rfingers 7.12502
rthumb 7.41886 -8.46063
lclavicle 1.44119e-014 -2.14687e-014
lhumerus -26.6792 -6.49369 81.2012
lradius 34.4357
lwrist 7.26064
lhand -27.1268 31.0125
lfingers 7.12502
lthumb -0.542592 60.9916
rfemur -30.9314 3.92748 17.5316
rtibia 20.7059
rfoot -10.4628 -11.0214
rtoes 0.0750847
lfemur 13.8833 -2.16788 -27.15
ltibia 19.9818
lfoot -15.8357 -1.72932
ltoes -13.4383
82
root 4.59563 17.6758 -6.05266 -0.617174 1.21661 2.66477
lowerback 10.1544 -1.55224 -4.83563
upperback 0.494531 -2.53475 1.62858
thorax -4.8957 -1.12707 4.79155
lowerneck -17.0995 -3.10625 -2.04722
upperneck 21.1611 -3.64038 -0.550687
head 9.54162 -1.92488 -0.32961
rclavicle -1.18774e-014 -3.18055e-015
rhumerus -34.6416 -22.001 -75.7414
rradius 24.7828
rwrist 4.12492
rhand -18.6185 22.6804
rfingers 7.12502
rthumb 7.67343 -7.16035
lclavicle -1.18774e-014 -3.18055e-015
lhumerus -26.785 -6.1909 81.2365
lradius 34.3067
lwrist 7.75039
lhand -25.9791 32.0298
lfingers 7.12502
lthumb 0.565894 62.0088
rfemur -30.9178 3.56406 17.7062
rtibia 22.1807
rfoot -9.64109 -9.58141
rtoes 0.962353
lfemur 14.1865 -2.45606 -27.2852
ltibia 20.6381
lfoot -14.7875 -2.27013
ltoes -14.0746
83
root 4.57383 17.6736 -5.84042 -0.601858 1.40342 2.69778
lowerback 10.0023 -1.60718 -4.85841
upperback 0.477968 -2.6054 1.59556
thorax -4.82026 -1.16412 4.77218
lowerneck -17.0591 -3.06854 -2.08108
upperneck 21.2666 -3.59949 -0.471081
head 9.5733 -1.89974 -0.291647
rclavicle 5.91384e-015 1.59028e-015
rhumerus -34.8022 -22.3574 -75.5608
rradius 24.5591
rwrist 4.3976
rhand -18.3772 23.1997
rfingers 7.12502
rthumb 7.90631 -6.63242
lclavicle 5.91384e-015 1.59028e-015
lhumerus -26.9958 -6.18443 81.2417
lradius 34.2682
lwrist 8.11695
lhand -26.7823 32.5461
lfingers 7.12502
lthumb -0.209821 62.5257
rfemur -31.1107 3.74588 17.6505
rtibia 23.4378
rfoot -8.22502 -8.79103
rtoes 0.360583
lfemur 14.3965 -2.73291 -27.1759
ltibia 21.2513
lfoot -13.8448 -2.8649
ltoes -17.0502
84
root 4.55107 17.7096 -5.62022 -0.687569 1.46747 2.44031
lowerback 10.0707 -1.58521 -4.58096
upperback 0.413991 -2.54663 1.63362
thorax -4.94278 -1.13544 4.65267
lowerneck -17.1989 -3.07671 -2.02358
upperneck 21.6123 -3.61453 -0.51573
head 9.71909 -1.90712 -0.325036
rclavicle -1.49089e-014 7.95139e-016
rhumerus -35.1189 -22.3547 -75.5251
rradius 24.6688
rwrist 4.23126
rhand -18.605 22.2153
rfingers 7.12502
rthumb 7.68645 -7.62504
lclavicle -1.49089e-014 7.95139e-016
lhumerus -27.1976 -6.09354 81.3104
lradius 34.1035
lwrist 7.91467
lhand -28.341 30.3486
lfingers 7.12502
lthumb -1.71529 60.3214
rfemur -31.0933 4.20671 17.8183
rtibia 24.5376
rfoot -7.18441 -8.50141
rtoes 0.541362
lfemur 14.521 -3.23608 -26.8753
ltibia 22.2667
lfoot -13.0086 -3.40252
ltoes -18.5131
85
root 4.5325 17.7316 -5.39837 -0.813846 1.49591 2.03265
lowerback 10.1451 -1.62246 -4.15267
upperback 0.344153 -2.54501 1.74164
thorax -5.07138 -1.13798 4.52945
lowerneck -17.2589 -3.10024 -2.02365
upperneck 21.9016 -3.63864 -0.554091
head 9.83229 -1.92301 -0.346149
rclavicle 2.75814e-014 -2.78299e-015
rhumerus -35.3238 -22.636 -75.2408
rradius 24.3947
rwrist 4.61243
rhand -18.758 21.7695
rfingers 7.12502
rthumb 7.53878 -8.07618
lclavicle 2.75814e-014 -2.78299e-015
lhumerus -27.4317 -5.63905 81.3615
lradius 33.9268
lwrist 7.75553
lhand -29.1991 28.9103
lfingers 7.12502
lthumb -2.54403 58.8748
rfemur -30.8632 4.40326 18.2711
rtibia 25.3711
rfoot -6.49683 -7.89281
rtoes 0.543359
lfemur 14.4406 -3.66458 -26.4364
ltibia 23.8064
lfoot -11.6178 -4.88594
ltoes -16.09
86
root 4.51672 17.7439 -5.1874 -0.975093 1.50849 1.45394
lowerback 10.2583 -1.69604 -3.56116
upperback 0.328546 -2.56676 1.94539
thorax -5.16496 -1.15756 4.41815
lowerneck -17.2019 -3.07922 -2.11004
upperneck 21.9409 -3.56144 -0.655944
head 9.83514 -1.90687 -0.356478
rclavicle -1.64991e-014 6.36111e-015
rhumerus -35.3239 -23.0968 -74.7559
rradius 23.7501
rwrist 5.57377
rhand -18.6492 21.939
rfingers 7.12502
rthumb 7.64372 -7.90288
lclavicle -1.64991e-014 6.36111e-015
lhumerus -27.5782 -5.15334 81.4766
lradius 33.5978
lwrist 7.72766
lhand -29.5678 27.5562
lfingers 7.12502
lthumb -2.90007 57.5162
rfemur -30.4839 4.47891 18.9614
rtibia 25.9242
rfoot -5.78668 -6.60052
rtoes -1.48985
lfemur 14.3482 -3.91173 -25.767
ltibia 25.6063
lfoot -10.6004 -5.33445
ltoes -19.5557
87
root 4.49774 17.7582 -4.98233 -1.20941 1.25249 0.749185
lowerback 10.4493 -1.66371 -2.92836
upperback 0.349976 -2.44001 2.18893
thorax -5.27753 -1.10488 4.3074
lowerneck -17.0192 -3.00719 -2.12204
upperneck 21.9162 -3.42927 -0.789481
head 9.78919 -1.86291 -0.379772
rclavicle -1.68967e-014 1.74931e-014
rhumerus -35.3595 -23.3095 -74.4332
rradius 23.2731
rwrist 6.16607
rhand -18.9232 21.9383
rfingers 7.12502
rthumb 7.37932 -7.91297
lclavicle -1.68967e-014 1.74931e-014
lhumerus -27.8575 -4.57668 81.5751
lradius 33.3103
lwrist 7.60217
lhand -29.3485 26.1888
lfingers 7.12502
lthumb -2.68824 56.1516
rfemur -30.0435 4.85568 19.7992
rtibia 26.5317
rfoot -4.67212 -5.34396
rtoes -3.36652
lfemur 14.0301 -3.87361 -24.906
ltibia 27.7288
lfoot -9.37142 -6.16485
ltoes -23.245
88
root 4.48287 17.7835 -4.76927 -1.53552 1.01946 0.178439
lowerback 10.6619 -1.65133 -2.39396
upperback 0.393676 -2.35162 2.38629
thorax -5.37197 -1.07042 4.20874
lowerneck -16.9196 -2.93039 -2.10942
upperneck 22.0546 -3.2946 -0.927391
head 9.8162 -1.81644 -0.411863
rclavicle 1.15295e-014 4.77083e-015
rhumerus -35.3062 -23.4381 -74.2583
rradius 22.84
rwrist 6.40812
rhand -18.7952 22.2417
rfingers 7.12502
rthumb 7.50283 -7.60523
lclavicle 1.15295e-014 4.77083e-015
lhumerus -28.2321 -4.09034 81.6631
lradius 33.1432
lwrist 7.56908
lhand -28.6974 28.6925
lfingers 7.12502
lthumb -2.05948 58.6623
rfemur -29.4246 5.03523 20.5558
rtibia 27.2218
rfoot -3.5161 -4.63988
rtoes -3.29933
lfemur 13.5544 -3.93493 -24.2156
ltibia 29.9154
lfoot -6.86396 -8.02569
ltoes -21.0207
89
root 4.46709 17.8003 -4.54836 -1.69439 0.844946 -0.0411276
lowerback 10.4915 -1.64503 -2.13836
upperback 0.463003 -2.30924 2.41362
thorax -5.21606 -1.06017 4.07659
lowerneck -16.7761 -2.93009 -2.16738
upperneck 22.0399 -3.29888 -0.861879
head 9.78657 -1.81599 -0.377456
rclavicle -1.1778e-014 1.19271e-014
rhumerus -35.43 -23.6506 -74.1114
rradius 22.6765
rwrist 6.58362
rhand -18.4967 22.6522
rfingers 7.12502
rthumb 7.79094 -7.18427
lclavicle -1.1778e-014 1.19271e-014
lhumerus -28.3959 -3.68809 81.6837
lradius 32.7528
lwrist 7.3544
lhand -28.4042 30.7278
lfingers 7.12502
lthumb -1.77631 60.7001
rfemur -29.008 5.07501 20.9847
rtibia 28.1023
rfoot -2.90746 -4.30374
rtoes -2.20187
lfemur 12.6611 -3.64083 -23.7281
ltibia 32.2809
lfoot -4.84454 -8.97235
ltoes -21.6249
